<svg width="760" height="540" viewBox="0 0 760 540" xmlns="http://www.w3.org/2000/svg" font-family="ui-monospace, SFMono-Regular, Menlo, Consolas, monospace">
  <rect x="0" y="0" width="760" height="540" rx="14" fill="#0d1117"/>
  <rect x="0" y="0" width="760" height="46" rx="14" fill="#161b22"/>
  <rect x="0" y="32" width="760" height="14" fill="#161b22"/>
  <circle cx="26" cy="23" r="6" fill="#ff5f56"/>
  <circle cx="48" cy="23" r="6" fill="#ffbd2e"/>
  <circle cx="70" cy="23" r="6" fill="#27c93f"/>
  <text x="380" y="28" fill="#8b949e" font-size="14" text-anchor="middle">mcp-architect · Claude Desktop</text>

  <!-- user prompt -->
  <text x="28" y="86" fill="#58a6ff" font-size="15">You</text>
  <text x="28" y="110" fill="#c9d1d9" font-size="15.5">Analyze the architecture of this repository.</text>

  <!-- assistant label -->
  <text x="28" y="150" fill="#a371f7" font-size="15">mcp-architect</text>

  <!-- Architecture Overview -->
  <text x="28" y="180" fill="#58a6ff" font-size="15.5" font-weight="bold">▸ Architecture Overview</text>
  <text x="44" y="204" fill="#c9d1d9" font-size="15">├─ FastAPI · React · PostgreSQL</text>
  <text x="44" y="226" fill="#8b949e" font-size="15">└─ 151 files · 17,368 LOC</text>

  <!-- Dependency Graph -->
  <text x="28" y="266" fill="#58a6ff" font-size="15.5" font-weight="bold">▸ Dependency Graph</text>
  <text x="44" y="290" fill="#c9d1d9" font-size="15">├─ auth → user → billing</text>
  <text x="44" y="312" fill="#d29922" font-size="15">└─ ⚠ circular dependency: billing → auth → billing</text>

  <!-- Hotspots -->
  <text x="28" y="352" fill="#58a6ff" font-size="15.5" font-weight="bold">▸ Hotspots (highest risk)</text>
  <text x="44" y="376" fill="#c9d1d9" font-size="15">├─ billing.py</text>
  <text x="520" y="376" fill="#8b949e" font-size="15">541 LOC · complexity 47</text>
  <text x="44" y="398" fill="#c9d1d9" font-size="15">└─ auth_service.py</text>
  <text x="520" y="398" fill="#8b949e" font-size="15">498 LOC · complexity 39</text>

  <!-- footer chip -->
  <rect x="28" y="438" width="356" height="34" rx="8" fill="#161b22" stroke="#21262d"/>
  <circle cx="48" cy="455" r="5" fill="#3fb950"/>
  <text x="62" y="460" fill="#8b949e" font-size="13.5">100% local · no API keys · uvx mcp-architect</text>

  <text x="28" y="512" fill="#484f58" font-size="12.5">Illustration of mcp-architect tool output. Runs entirely on your machine.</text>
</svg>
